# xmcd
#
# Track frame offsets:
#	150
#	24760
#	45670
#	63787
#	83842
#	101845
#	122335
#	144930
#	165667
#	185545
#	205165
#	223932
#	243307
#	263450
#	281502
#
# Disc length: 4017 seconds
#
# Revision: 3
# Processed by: cddbd v1.5.2PL0 Copyright (c) Steve Scherf et al.
# Submitted via: EasyCDDAExtractor 15.3.0.1
#
DISCID=c60faf0f
DTITLE=Jon Secada - 30 Exitos Insuperables - CD 2
DYEAR=2003
DGENRE=Latin
TTITLE0=Just Another Day
TTITLE1=Angel
TTITLE2=Do You Believe In Us
TTITLE3=Time Heals
TTITLE4=I'm Free
TTITLE5=Whipped
TTITLE6=Take Me
TTITLE7=If You Go
TTITLE8=Where Do I Go From You
TTITLE9=Mental Picture
TTITLE10=Eyes Of A Fool
TTITLE11=Too Late, Too Soon
TTITLE12=Believe
TTITLE13=Get Me Over You
TTITLE14=I Live For You
EXTD=YEAR: 2003
EXTT0=
EXTT1=
EXTT2=
EXTT3=
EXTT4=
EXTT5=
EXTT6=
EXTT7=
EXTT8=
EXTT9=
EXTT10=
EXTT11=
EXTT12=
EXTT13=
EXTT14=
PLAYORDER=
